<?xml version="1.0" encoding="utf-8"?>
<!-- Generator: Adobe Illustrator 24.3.0, SVG Export Plug-In . SVG Version: 6.00 Build 0)  -->
<svg version="1.1" id="Layer_1" xmlns="http://www.w3.org/2000/svg" xmlns:xlink="http://www.w3.org/1999/xlink" x="0px" y="0px"
	 viewBox="0 0 50 50" style="enable-background:new 0 0 50 50;" xml:space="preserve">
<style type="text/css">
	.st0{fill:#FFFFFF;}
</style>
<path class="st0" d="M25,1.8c-9.8,0-17.8,8-17.8,17.8c0,0.9,0.1,1.7,0.2,2.6c0.4,3,1.6,5.7,3.3,8l0.8,1l13.5,17l13.5-17l0.8-1
	c1.7-2.3,2.9-5,3.3-8c0.1-0.8,0.2-1.7,0.2-2.6C42.8,9.8,34.8,1.8,25,1.8z M25,24.4c-2.8,0-5.1-2.3-5.1-5.1c0-2.8,2.3-5.1,5.1-5.1
	c2.8,0,5,2.3,5,5.1C30.1,22.1,27.8,24.4,25,24.4z"/>
</svg>
