<?xml version="1.0" encoding="utf-8"?>
<!-- Generator: Adobe Illustrator 24.3.0, SVG Export Plug-In . SVG Version: 6.00 Build 0)  -->
<svg version="1.1" id="Layer_1" xmlns="http://www.w3.org/2000/svg" xmlns:xlink="http://www.w3.org/1999/xlink" x="0px" y="0px"
	 viewBox="0 0 50 50" style="enable-background:new 0 0 50 50;" xml:space="preserve">
<style type="text/css">
	.st0{fill:#FFFFFF;}
</style>
<g>
	<path class="st0" d="M14.5,1.7C15,2,15.7,2.1,16.2,2.5c1,0.7,1.5,1.7,1.5,2.9c0.1,2.1,0.2,4.1,0.7,6.2c0.2,0.8,0.4,1.6,0.7,2.5
		c0.3,1.3,0,2.4-0.8,3.4c-1.3,1.7-2.6,3.4-3.9,5.1c-0.1,0.1-0.1,0.3,0,0.4c2.6,5,6.3,9,11.3,11.9c0.4,0.3,0.9,0.5,1.3,0.8
		c0.1,0.1,0.4,0.1,0.5,0c1.7-1.3,3.4-2.6,5.1-3.9c1-0.8,2.1-1,3.3-0.7c1.2,0.3,2.4,0.7,3.7,0.9c1.6,0.2,3.2,0.4,4.8,0.5
		c1.9,0.1,3.2,1.1,3.7,2.8c0.1,0.4,0.1,0.8,0.1,1.2c0,2.7,0,5.4,0,8.1c0,2.3-1.6,3.9-4,3.9c-8.6-0.1-16.5-2.5-23.6-7.3
		c-6.9-4.7-12-10.8-15.4-18.4c-1.6-3.7-2.7-7.6-3.2-11.7C1.9,9.7,1.8,8.5,1.7,7.3c0-0.8,0-1.5,0-2.3C2,4.4,2.2,3.8,2.5,3.2
		C3.1,2.3,4,2,5,1.7C8.1,1.7,11.3,1.7,14.5,1.7z"/>
	<path class="st0" d="M5,1.8C4,2,3,2.4,2.5,3.3C2.1,3.8,1.9,4.4,1.7,5c0-1.1,0-2.2,0-3.3C2.8,1.8,3.9,1.8,5,1.8z"/>
</g>
</svg>
