<svg xmlns="http://www.w3.org/2000/svg" width="43.666" height="43.666" viewBox="0 0 43.666 43.666">
  <path id="Union_7" data-name="Union 7" d="M-3523.727,43.285l-4.741-4.82h-9.7a6.4,6.4,0,0,1-6.4-6.4V26.951a6.415,6.415,0,0,1,.129-1.28h-3.437l-4.742,4.743a1.28,1.28,0,0,1-1.394.277,1.278,1.278,0,0,1-.79-1.182V25.545a6.452,6.452,0,0,1-5.2-6.27V6.4a6.465,6.465,0,0,1,6.481-6.4h17.911a6.4,6.4,0,0,1,6.4,6.4V19.274a6.465,6.465,0,0,1-.129,1.28h6.525a6.465,6.465,0,0,1,6.482,6.4v5.117a6.457,6.457,0,0,1-5.2,6.268v4.051a1.277,1.277,0,0,1-.795,1.183,1.274,1.274,0,0,1-.485.1A1.277,1.277,0,0,1-3523.727,43.285ZM-3542,26.951v5.117a3.842,3.842,0,0,0,3.838,3.838h10.234a1.281,1.281,0,0,1,.913.382l2.926,2.974V37.184a1.279,1.279,0,0,1,1.279-1.279,3.9,3.9,0,0,0,3.923-3.838V26.951a3.933,3.933,0,0,0-3.923-3.838h-7.679a6.391,6.391,0,0,1-5.114,2.559h-6.177A3.847,3.847,0,0,0-3542,26.951ZM-3557.442,6.4V19.274a3.934,3.934,0,0,0,3.923,3.838,1.28,1.28,0,0,1,1.28,1.279V26.42l2.933-2.933a1.279,1.279,0,0,1,.9-.374h12.794a3.842,3.842,0,0,0,3.837-3.838V6.4a3.842,3.842,0,0,0-3.837-3.838h-17.911A3.934,3.934,0,0,0-3557.442,6.4Zm30.712,23.131a1.248,1.248,0,0,1,1.248-1.248,1.248,1.248,0,0,1,1.248,1.248,1.248,1.248,0,0,1-1.248,1.247A1.248,1.248,0,0,1-3526.73,29.527Zm-4.99,0a1.248,1.248,0,0,1,1.247-1.248,1.248,1.248,0,0,1,1.248,1.248,1.248,1.248,0,0,1-1.248,1.247A1.248,1.248,0,0,1-3531.721,29.527Zm-4.99,0a1.248,1.248,0,0,1,1.247-1.248,1.248,1.248,0,0,1,1.248,1.248,1.248,1.248,0,0,1-1.248,1.247A1.248,1.248,0,0,1-3536.711,29.527ZM-3550.959,18a1.28,1.28,0,0,1-1.28-1.28V9.041a1.28,1.28,0,0,1,1.28-1.28h7.675a1.28,1.28,0,0,1,1.28,1.28v1.279l3.07-2.3a1.282,1.282,0,0,1,1.34-.122,1.28,1.28,0,0,1,.706,1.145v7.675a1.28,1.28,0,0,1-.706,1.145,1.282,1.282,0,0,1-1.34-.121l-3.07-2.3v1.279a1.28,1.28,0,0,1-1.28,1.28Zm1.279-2.559h5.117V10.319h-5.117Zm8.528-2.559,1.707,1.28V11.6Z" transform="translate(3560)" fill="#06f"/>
</svg>
