<?xml version="1.0" encoding="UTF-8"?>
<svg width="29px" height="37px" viewBox="0 0 29 37" version="1.1" xmlns="http://www.w3.org/2000/svg" xmlns:xlink="http://www.w3.org/1999/xlink">
    <!-- Generator: Sketch 52.3 (67297) - http://www.bohemiancoding.com/sketch -->
    <title>Group 9</title>
    <desc>Created with Sketch.</desc>
    <g id="Page-1" stroke="none" stroke-width="1" fill="none" fill-rule="evenodd">
        <g id="LandingPage03" transform="translate(-287.000000, -2192.000000)">
            <g id="Group-9" transform="translate(287.000000, 2192.000000)">
                <g id="noun_Flame_707268_000000" transform="translate(0.500000, 0.000000)" fill="#FFFFFF" fill-rule="nonzero">
                    <path d="M27.0859107,35.1152815 L0.914089347,35.1152815 C0.432989691,35.1152815 0,35.5120643 0,36.0576408 C0,36.6032172 0.384879725,37 0.914089347,37 L27.0859107,37 C27.5670103,37 28,36.6032172 28,36.0576408 C28,35.5120643 27.5670103,35.1152815 27.0859107,35.1152815 Z M6.68728522,25.4932976 C7.31271478,26.386059 8.03436426,27.2292225 8.99656357,28.0227882 C9.91065292,28.8163539 10.8247423,29.5107239 11.7869416,30.1058981 C12.7491409,30.7010724 13.8075601,31.2466488 15.0103093,31.8418231 L15.1065292,31.8418231 C14.1924399,30.0563003 13.7594502,28.5187668 13.7594502,27.1796247 C13.7594502,26.4852547 13.9037801,25.7908847 14.2405498,25.1957105 C14.5773196,24.5509383 15.0103093,24.0053619 15.5395189,23.5093834 C16.0687285,23.0134048 16.6460481,22.5174263 17.3195876,22.0214477 C17.9450172,21.5254692 18.6185567,20.9798928 19.2439863,20.4343164 C19.8694158,19.8391421 20.4948454,19.2439678 21.024055,18.5991957 C21.5532646,17.9544236 21.9862543,17.1608579 22.3230241,16.2680965 C22.6597938,15.3753351 22.8041237,14.3337802 22.8041237,13.2922252 C22.8041237,11.9530831 22.6116838,10.6635389 22.2268041,9.47319035 C21.8419244,8.28284182 21.3608247,7.24128686 20.7835052,6.34852547 C20.1580756,5.45576408 19.4364261,4.61260054 18.4742268,3.81903485 C17.5601375,3.02546917 16.6460481,2.3310992 15.6838488,1.73592493 C14.7216495,1.14075067 13.6632302,0.595174263 12.4604811,0 L12.4123711,0 C13.2783505,1.78552279 13.7594502,3.37265416 13.7594502,4.66219839 C13.7594502,5.35656836 13.6151203,6.05093834 13.2783505,6.6461126 C12.9415808,7.29088472 12.5085911,7.83646113 11.9793814,8.33243968 C11.4501718,8.82841823 10.8728522,9.32439678 10.1993127,9.82037534 C9.57388316,10.3163539 8.90034364,10.8619303 8.27491409,11.4075067 C7.64948454,12.002681 7.02405498,12.5978552 6.49484536,13.2426273 C5.96563574,13.8873995 5.53264605,14.6809651 5.19587629,15.5737265 C4.85910653,16.4664879 4.71477663,17.5080429 4.71477663,18.5495979 C4.71477663,19.8887399 4.90721649,21.1782842 5.29209622,22.3686327 C5.58075601,23.5589812 6.06185567,24.6005362 6.68728522,25.4932976 Z M6.83161512,16.1689008 C7.07216495,15.4745308 7.40893471,14.8793566 7.79381443,14.383378 C8.27491409,13.8378016 8.80412371,13.2922252 9.3814433,12.7466488 C10.0068729,12.2010724 10.6323024,11.7050938 11.209622,11.2091153 C11.8831615,10.6635389 12.556701,10.1179625 13.0859107,9.62198391 C13.7594502,8.9772118 14.3367698,8.23324397 14.7697595,7.43967828 C15.2508591,6.54691689 15.4914089,5.55495979 15.4914089,4.56300268 C15.4914089,4.26541555 15.4914089,4.01742627 15.443299,3.71983914 C16.0687285,4.11662198 16.6460481,4.61260054 17.2233677,5.10857909 C18.0412371,5.80294906 18.6666667,6.54691689 19.1958763,7.29088472 C19.6769759,8.03485255 20.1099656,8.92761394 20.3986254,9.91957105 C20.6872852,10.9115282 20.8797251,12.002681 20.8797251,13.1930295 C20.8797251,14.036193 20.7353952,14.8297587 20.4948454,15.5241287 C20.2542955,16.2184987 19.9175258,16.8136729 19.532646,17.3096515 C19.0515464,17.9048257 18.5223368,18.4504021 17.9450172,18.9463807 C17.3195876,19.4919571 16.6941581,19.9879357 16.1168385,20.4839142 C15.443299,21.0294906 14.7697595,21.575067 14.2405498,22.0710456 C13.5670103,22.7158177 12.9896907,23.4597855 12.556701,24.2533512 C12.0756014,25.1461126 11.8350515,26.1380697 11.8350515,27.1300268 C11.8350515,27.4276139 11.8350515,27.6756032 11.8831615,27.9731903 C11.257732,27.5764075 10.6804124,27.080429 10.1030928,26.5844504 C9.28522337,25.8900804 8.65979381,25.1461126 8.13058419,24.4021448 C7.64948454,23.6581769 7.21649485,22.7654155 6.92783505,21.7734584 C6.63917526,20.7815013 6.4467354,19.6903485 6.4467354,18.5 C6.49484536,17.6568365 6.59106529,16.8632708 6.83161512,16.1689008 Z" id="Shape"></path>
                </g>
                <path d="M11.0873118,19 C9.79736448,17.0639379 10.6323073,15.4022801 13.5921402,14.0150266 C16.5519732,12.6277732 18.1879264,10.9560976 18.5,9" id="Path-2" stroke="#FFFFFF" stroke-width="2" stroke-linecap="round"></path>
            </g>
        </g>
    </g>
</svg>