<?xml version="1.0" encoding="utf-8"?>
<!-- Generator: Adobe Illustrator 21.0.0, SVG Export Plug-In . SVG Version: 6.00 Build 0)  -->
<svg version="1.1" xmlns="http://www.w3.org/2000/svg" xmlns:xlink="http://www.w3.org/1999/xlink" x="0px" y="0px"
	 viewBox="0 0 64 64" style="enable-background:new 0 0 64 64;" xml:space="preserve">
<style type="text/css">
	.st0{fill:none;}
	.st1{fill:none;stroke:#1D1D1B;stroke-width:2.88;}
	.st2{fill:none;stroke:#2B2B29;stroke-width:2;stroke-miterlimit:10;}
	.st3{fill:none;stroke:#2B2B29;stroke-width:2;stroke-miterlimit:10;stroke-dasharray:4.4657,2.2328;}
	.st4{fill:url(#SVGID_2_);stroke:#2B2B29;stroke-width:2;stroke-miterlimit:10;}
	.st5{fill:none;stroke:#FFFFFF;stroke-width:7;stroke-miterlimit:10;}
	.st6{fill:none;stroke:#2B2B29;stroke-width:2;stroke-linecap:round;stroke-linejoin:round;stroke-miterlimit:10;}
	.st7{fill:#2B2B29;}
	.st8{fill:#FFFFFF;}
	.st9{fill:none;stroke:#FFFFFF;stroke-width:2;stroke-miterlimit:10;}
	.st10{fill:#FFFFFF;stroke:#2B2B29;stroke-width:2;stroke-miterlimit:10;}
	.st11{fill:none;stroke:#FFFFFF;stroke-width:6;stroke-linecap:square;stroke-miterlimit:10;}
	.st12{fill:none;stroke:#FFFFFF;stroke-width:6;stroke-miterlimit:10;}
	.st13{fill:none;stroke:#2B2B29;stroke-width:1.5;stroke-miterlimit:10;}
	.st14{fill:#2B2B29;stroke:#2B2B29;stroke-width:0.5;stroke-miterlimit:10;}
	.st15{fill:url(#SVGID_4_);stroke:#2B2B29;stroke-width:2;stroke-miterlimit:10;}
	.st16{fill:none;stroke:#2B2B29;stroke-width:2;stroke-linecap:square;stroke-miterlimit:10;}
	.st17{fill:#1D1D1B;}
	.st18{fill:none;stroke:#000000;stroke-width:2;stroke-miterlimit:10;}
	.st19{fill-rule:evenodd;clip-rule:evenodd;}
	.st20{fill-rule:evenodd;clip-rule:evenodd;fill:none;stroke:#000000;stroke-width:2;stroke-miterlimit:10;}
	.st21{fill:none;stroke:#FFFFFF;stroke-width:4;stroke-linecap:square;stroke-miterlimit:10;}
	.st22{clip-path:url(#SVGID_5_);fill:none;stroke:#E6E6E6;stroke-miterlimit:10;}
	
		.st23{clip-path:url(#SVGID_5_);fill-rule:evenodd;clip-rule:evenodd;fill:none;stroke:#000000;stroke-width:2;stroke-miterlimit:10;}
	.st24{fill:url(#);}
	.st25{fill:#2B2B29;stroke:#2B2B29;stroke-miterlimit:10;}
	.st26{fill:none;stroke:#2B2B29;stroke-width:2;stroke-miterlimit:10;stroke-dasharray:4.5714,2.2857;}
	.st27{fill:none;stroke:#2B2B29;stroke-width:2;stroke-miterlimit:10;stroke-dasharray:3.4912,2.6184;}
	.st28{display:none;}
	.st29{display:inline;}
	.st30{opacity:0.9;fill:#2B2B29;}
	.st31{opacity:0.8;fill:#2B2B29;}
	.st32{opacity:0.7;fill:#2B2B29;}
	.st33{opacity:0.5;fill:#2B2B29;}
	.st34{opacity:0.3;fill:#2B2B29;}
	.st35{opacity:0.2;}
	.st36{fill:none;stroke:#2B2B29;stroke-miterlimit:10;}
	.st37{display:inline;fill:none;stroke:#2B2B29;stroke-width:2;stroke-miterlimit:10;}
	.st38{fill:none;stroke:#FFFFFF;stroke-width:8;stroke-miterlimit:10;}
	.st39{display:inline;fill:#FFFFFF;}
	.st40{fill:#FFFFFF;stroke:#FFFFFF;stroke-width:5;stroke-miterlimit:10;}
	.st41{display:inline;fill:none;stroke:#525252;stroke-width:6;stroke-linecap:round;stroke-linejoin:round;stroke-miterlimit:10;}
	.st42{display:inline;fill:none;stroke:#FFFFFF;stroke-width:6;stroke-linecap:square;stroke-miterlimit:10;}
	.st43{display:inline;fill:none;stroke:#2B2B29;stroke-width:2;stroke-linecap:square;stroke-miterlimit:10;}
	.st44{clip-path:url(#SVGID_6_);}
	.st45{display:inline;fill:#2B2B29;}
	.st46{stroke:#000000;stroke-width:2;stroke-miterlimit:10;}
	.st47{fill:url(#);stroke:#000000;stroke-width:2;stroke-miterlimit:10;}
	.st48{display:inline;fill:#2B2B29;stroke:#2B2B29;stroke-width:2;stroke-miterlimit:10;}
	.st49{display:inline;fill:#4E4D4D;stroke:#2B2B29;stroke-width:2;stroke-miterlimit:10;}
	.st50{display:inline;fill:#676767;stroke:#2B2B29;stroke-width:2;stroke-miterlimit:10;}
	.st51{display:inline;fill:#808080;stroke:#2B2B29;stroke-width:2;stroke-miterlimit:10;}
	.st52{display:inline;fill:#989898;stroke:#2B2B29;stroke-width:2;stroke-miterlimit:10;}
	.st53{display:inline;fill:#CCCBCB;stroke:#2B2B29;stroke-width:2;stroke-miterlimit:10;}
	.st54{display:inline;fill:#2B2B29;stroke:#2B2B29;stroke-miterlimit:10;}
	.st55{display:inline;fill:#C9C9C9;stroke:#2B2B29;stroke-width:2;stroke-miterlimit:10;}
	.st56{fill:#3E3D42;stroke:#3E3D42;stroke-width:0.75;stroke-miterlimit:10;}
	.st57{display:inline;fill:#FA4720;}
</style>
<pattern  x="-1434" y="-1712" width="72" height="72" patternUnits="userSpaceOnUse" id="_x31_0_lpi_40_x25_" viewBox="72.3 -72 72 72" style="overflow:visible;">
	<g>
		<rect x="72.3" y="-72" class="st0" width="72" height="72"/>
		<g>
			<line class="st1" x1="144" y1="-3.6" x2="216.5" y2="-3.6"/>
			<line class="st1" x1="144" y1="-18" x2="216.5" y2="-18"/>
			<line class="st1" x1="144" y1="-32.4" x2="216.5" y2="-32.4"/>
			<line class="st1" x1="144" y1="-46.8" x2="216.5" y2="-46.8"/>
			<line class="st1" x1="144" y1="-61.2" x2="216.5" y2="-61.2"/>
			<line class="st1" x1="144" y1="-10.8" x2="216.5" y2="-10.8"/>
			<line class="st1" x1="144" y1="-25.2" x2="216.5" y2="-25.2"/>
			<line class="st1" x1="144" y1="-39.6" x2="216.5" y2="-39.6"/>
			<line class="st1" x1="144" y1="-54" x2="216.5" y2="-54"/>
			<line class="st1" x1="144" y1="-68.4" x2="216.5" y2="-68.4"/>
		</g>
		<g>
			<line class="st1" x1="72" y1="-3.6" x2="144.5" y2="-3.6"/>
			<line class="st1" x1="72" y1="-18" x2="144.5" y2="-18"/>
			<line class="st1" x1="72" y1="-32.4" x2="144.5" y2="-32.4"/>
			<line class="st1" x1="72" y1="-46.8" x2="144.5" y2="-46.8"/>
			<line class="st1" x1="72" y1="-61.2" x2="144.5" y2="-61.2"/>
			<line class="st1" x1="72" y1="-10.8" x2="144.5" y2="-10.8"/>
			<line class="st1" x1="72" y1="-25.2" x2="144.5" y2="-25.2"/>
			<line class="st1" x1="72" y1="-39.6" x2="144.5" y2="-39.6"/>
			<line class="st1" x1="72" y1="-54" x2="144.5" y2="-54"/>
			<line class="st1" x1="72" y1="-68.4" x2="144.5" y2="-68.4"/>
		</g>
		<g>
			<line class="st1" x1="0" y1="-3.6" x2="72.5" y2="-3.6"/>
			<line class="st1" x1="0" y1="-18" x2="72.5" y2="-18"/>
			<line class="st1" x1="0" y1="-32.4" x2="72.5" y2="-32.4"/>
			<line class="st1" x1="0" y1="-46.8" x2="72.5" y2="-46.8"/>
			<line class="st1" x1="0" y1="-61.2" x2="72.5" y2="-61.2"/>
			<line class="st1" x1="0" y1="-10.8" x2="72.5" y2="-10.8"/>
			<line class="st1" x1="0" y1="-25.2" x2="72.5" y2="-25.2"/>
			<line class="st1" x1="0" y1="-39.6" x2="72.5" y2="-39.6"/>
			<line class="st1" x1="0" y1="-54" x2="72.5" y2="-54"/>
			<line class="st1" x1="0" y1="-68.4" x2="72.5" y2="-68.4"/>
		</g>
	</g>
</pattern>
<g id="Layer_1">
	<circle class="st2" cx="32" cy="31" r="12.5"/>
	
		<pattern  id="SVGID_2_" xlink:href="#_x31_0_lpi_40_x25_" patternTransform="matrix(0.3889 -0.3889 0.3889 0.3889 -1472.4742 -6146.3257)">
	</pattern>
	<path class="st4" d="M40,31c0,4.4-3.6,8-8,8s-8-3.6-8-8H40z"/>
	<polyline class="st11" points="24.7,52.5 31,48.4 26.8,42.1 	"/>
	<g>
		<path class="st2" d="M31,48.4c-9-0.5-16.2-8-16.2-17.2C14.8,21.7,22.5,14,32,14s17.2,7.7,17.2,17.2c0,8.5-6.1,15.5-14.2,17"/>
		<polyline class="st2" points="24.9,52.5 31,48.5 26.9,42.4 		"/>
	</g>
	<path class="st2" d="M24,31c0-4.4,3.6-8,8-8"/>
</g>
<g id="old" class="st28">
</g>
</svg>
