<svg id="Layer_1" data-name="Layer 1" xmlns="http://www.w3.org/2000/svg" viewBox="0 0 64 64"><defs><style>.cls-1{fill:none;stroke:#2b2b29;stroke-miterlimit:10;stroke-width:2px;}.cls-2{fill:#2b2b29;}</style></defs><title>1400 rpm spin speed</title><path class="cls-1" d="M31,16a16,16,0,0,1,5,31.2"/><path class="cls-1" d="M31,48a16,16,0,0,1-5-31.2"/><polyline class="cls-1" points="26 53 31 48 26 43"/><polyline class="cls-1" points="36 11 30 16 36 21"/><path class="cls-2" d="M23.28,28.75v7.37H21.41V30.84l-1.72.83V29.84L22,28.75Z"/><path class="cls-2" d="M27.63,28.75l-2,4.44h1.16V31.94h1.66v1.25h1v1.56h-1v1.37H26.76V34.75h-3.2V33.33l2.23-4.58Z"/><path class="cls-2" d="M34.61,35.17a2.82,2.82,0,0,1-4.41,0,4.26,4.26,0,0,1-.85-2.75,4.26,4.26,0,0,1,.85-2.75,2.82,2.82,0,0,1,4.41,0,4.24,4.24,0,0,1,.85,2.74A4.24,4.24,0,0,1,34.61,35.17ZM33.3,30.92a1,1,0,0,0-1.79,0,4.07,4.07,0,0,0,0,3,1,1,0,0,0,1.79,0,4.07,4.07,0,0,0,0-3Z"/><path class="cls-2" d="M40.72,35.17a2.82,2.82,0,0,1-4.41,0,4.26,4.26,0,0,1-.85-2.75,4.26,4.26,0,0,1,.85-2.75,2.82,2.82,0,0,1,4.41,0,4.24,4.24,0,0,1,.85,2.74A4.24,4.24,0,0,1,40.72,35.17Zm-1.31-4.26a1,1,0,0,0-1.79,0,4.07,4.07,0,0,0,0,3,1,1,0,0,0,1.79,0,4.07,4.07,0,0,0,0-3Z"/></svg>