<?xml version="1.0" encoding="UTF-8"?>
<svg width="31px" height="29px" viewBox="0 0 31 29" version="1.1" xmlns="http://www.w3.org/2000/svg" xmlns:xlink="http://www.w3.org/1999/xlink">
    <!-- Generator: Sketch 52.3 (67297) - http://www.bohemiancoding.com/sketch -->
    <title>noun_Magnet_1123065_000000</title>
    <desc>Created with Sketch.</desc>
    <g id="Page-1" stroke="none" stroke-width="1" fill="none" fill-rule="evenodd">
        <g id="LandingPage03" transform="translate(-704.000000, -2194.000000)" fill="#FFFFFF">
            <g id="noun_Magnet_1123065_000000" transform="translate(704.000000, 2194.000000)">
                <path d="M9,29 C13.9635,29 18,24.73925 18,19.5 C18,14.26075 13.9635,10 9,10 C4.0365,10 0,14.26075 0,19.5 C0,24.73925 4.0365,29 9,29 Z M9,13.1666667 C12.309,13.1666667 15,16.0071667 15,19.5 C15,22.9928333 12.309,25.8333333 9,25.8333333 C5.691,25.8333333 3,22.9928333 3,19.5 C3,16.0071667 5.691,13.1666667 9,13.1666667 Z" id="Shape" fill-rule="nonzero"></path>
                <polygon id="Rectangle" transform="translate(12.534326, 4.659970) rotate(-45.000000) translate(-12.534326, -4.659970) " points="8.17753619 3.14354953 16.9104285 3.08892628 16.8911167 6.17639041 8.15822445 6.23101366"></polygon>
                <polygon id="Rectangle" transform="translate(22.504679, 6.991173) rotate(-45.000000) translate(-22.504679, -6.991173) " points="14.8736332 5.49523229 30.1550369 5.39964884 30.1357252 8.48711297 14.8543215 8.58269642"></polygon>
                <polygon id="Rectangle" transform="translate(25.572861, 17.864992) rotate(-45.000000) translate(-25.572861, -17.864992) " points="20.1246522 16.3553987 31.0403816 16.2871221 31.0210699 19.3745862 20.1053404 19.4428629"></polygon>
            </g>
        </g>
    </g>
</svg>