<svg id="Layer_1" data-name="Layer 1" xmlns="http://www.w3.org/2000/svg" viewBox="0 0 64 64"><defs><style>.cls-1,.cls-2{fill:none;stroke:#2b2b29;stroke-width:2px;}.cls-1{stroke-linecap:round;stroke-linejoin:round;}.cls-2{stroke-miterlimit:10;}.cls-3{fill:#2b2b29;}</style></defs><title>Dual-cooling-1</title><path class="cls-1" d="M34.89,40.6A6.89,6.89,0,0,1,37,45.5a7,7,0,0,1-14,0,7.23,7.23,0,0,1,2-4.9"/><path class="cls-2" d="M26,40.5v-26a4,4,0,0,1,8,0v26"/><circle class="cls-3" cx="29.99" cy="45.5" r="3"/><rect class="cls-3" x="28.99" y="19.84" width="2" height="25.66"/><line class="cls-2" x1="37.99" y1="28.5" x2="42.99" y2="28.5"/><line class="cls-2" x1="37.99" y1="32.5" x2="46.99" y2="32.5"/><line class="cls-2" x1="37.99" y1="36.5" x2="42.99" y2="36.5"/><line class="cls-2" x1="13.13" y1="15.5" x2="22.13" y2="15.5"/><line class="cls-2" x1="17.13" y1="19.5" x2="22.13" y2="19.5"/><line class="cls-2" x1="17.13" y1="11.5" x2="22.13" y2="11.5"/><line class="cls-2" x1="13.13" y1="23.5" x2="22.13" y2="23.5"/><line class="cls-2" x1="17.13" y1="27.5" x2="22.13" y2="27.5"/></svg>