<?xml version="1.0" encoding="utf-8"?>
<!-- Generator: Adobe Illustrator 21.0.0, SVG Export Plug-In . SVG Version: 6.00 Build 0)  -->
<svg version="1.1" xmlns="http://www.w3.org/2000/svg" xmlns:xlink="http://www.w3.org/1999/xlink" x="0px" y="0px"
	 viewBox="0 0 64 64" style="enable-background:new 0 0 64 64;" xml:space="preserve">
<style type="text/css">
	.st0{fill:none;stroke:#2B2B29;stroke-width:2;stroke-miterlimit:10;}
	.st1{fill:none;stroke:#2B2B29;stroke-width:2;stroke-miterlimit:10;stroke-dasharray:4.4657,2.2328;}
	.st2{fill:url(#);stroke:#2B2B29;stroke-width:2;stroke-miterlimit:10;}
	.st3{fill:none;stroke:#FFFFFF;stroke-width:7;stroke-miterlimit:10;}
	.st4{fill:none;stroke:#2B2B29;stroke-width:2;stroke-linecap:round;stroke-linejoin:round;stroke-miterlimit:10;}
	.st5{fill:#2B2B29;}
	.st6{fill:#FFFFFF;}
	.st7{fill:none;stroke:#FFFFFF;stroke-width:2;stroke-miterlimit:10;}
	.st8{fill:#FFFFFF;stroke:#2B2B29;stroke-width:2;stroke-miterlimit:10;}
	.st9{fill:none;stroke:#FFFFFF;stroke-width:6;stroke-linecap:square;stroke-miterlimit:10;}
	.st10{fill:none;stroke:#FFFFFF;stroke-width:6;stroke-miterlimit:10;}
	.st11{fill:none;stroke:#2B2B29;stroke-width:1.5;stroke-miterlimit:10;}
	.st12{fill:#2B2B29;stroke:#2B2B29;stroke-width:0.5;stroke-miterlimit:10;}
	.st13{fill:none;stroke:#2B2B29;stroke-width:2;stroke-linecap:square;stroke-miterlimit:10;}
	.st14{fill:#1D1D1B;}
	.st15{fill:none;stroke:#000000;stroke-width:2;stroke-miterlimit:10;}
	.st16{fill-rule:evenodd;clip-rule:evenodd;}
	.st17{fill-rule:evenodd;clip-rule:evenodd;fill:none;stroke:#000000;stroke-width:2;stroke-miterlimit:10;}
	.st18{fill:none;stroke:#FFFFFF;stroke-width:4;stroke-linecap:square;stroke-miterlimit:10;}
	.st19{clip-path:url(#SVGID_2_);fill:none;stroke:#E6E6E6;stroke-miterlimit:10;}
	
		.st20{clip-path:url(#SVGID_2_);fill-rule:evenodd;clip-rule:evenodd;fill:none;stroke:#000000;stroke-width:2;stroke-miterlimit:10;}
	.st21{fill:url(#);}
	.st22{fill:#2B2B29;stroke:#2B2B29;stroke-miterlimit:10;}
	.st23{fill:none;stroke:#2B2B29;stroke-width:2;stroke-miterlimit:10;stroke-dasharray:4.5714,2.2857;}
	.st24{fill:none;stroke:#2B2B29;stroke-width:2;stroke-miterlimit:10;stroke-dasharray:3.4912,2.6184;}
	.st25{display:none;}
	.st26{display:inline;}
	.st27{opacity:0.9;fill:#2B2B29;}
	.st28{opacity:0.8;fill:#2B2B29;}
	.st29{opacity:0.7;fill:#2B2B29;}
	.st30{opacity:0.5;fill:#2B2B29;}
	.st31{opacity:0.3;fill:#2B2B29;}
	.st32{opacity:0.2;}
	.st33{fill:none;stroke:#2B2B29;stroke-miterlimit:10;}
	.st34{display:inline;fill:none;stroke:#2B2B29;stroke-width:2;stroke-miterlimit:10;}
	.st35{fill:none;stroke:#FFFFFF;stroke-width:8;stroke-miterlimit:10;}
	.st36{display:inline;fill:#FFFFFF;}
	.st37{fill:#FFFFFF;stroke:#FFFFFF;stroke-width:5;stroke-miterlimit:10;}
	.st38{display:inline;fill:none;stroke:#525252;stroke-width:6;stroke-linecap:round;stroke-linejoin:round;stroke-miterlimit:10;}
	.st39{display:inline;fill:none;stroke:#FFFFFF;stroke-width:6;stroke-linecap:square;stroke-miterlimit:10;}
	.st40{display:inline;fill:none;stroke:#2B2B29;stroke-width:2;stroke-linecap:square;stroke-miterlimit:10;}
	.st41{clip-path:url(#SVGID_4_);}
	.st42{display:inline;fill:#2B2B29;}
	.st43{stroke:#000000;stroke-width:2;stroke-miterlimit:10;}
	.st44{fill:url(#);stroke:#000000;stroke-width:2;stroke-miterlimit:10;}
	.st45{display:inline;fill:#2B2B29;stroke:#2B2B29;stroke-width:2;stroke-miterlimit:10;}
	.st46{display:inline;fill:#4E4D4D;stroke:#2B2B29;stroke-width:2;stroke-miterlimit:10;}
	.st47{display:inline;fill:#676767;stroke:#2B2B29;stroke-width:2;stroke-miterlimit:10;}
	.st48{display:inline;fill:#808080;stroke:#2B2B29;stroke-width:2;stroke-miterlimit:10;}
	.st49{display:inline;fill:#989898;stroke:#2B2B29;stroke-width:2;stroke-miterlimit:10;}
	.st50{display:inline;fill:#CCCBCB;stroke:#2B2B29;stroke-width:2;stroke-miterlimit:10;}
	.st51{display:inline;fill:#2B2B29;stroke:#2B2B29;stroke-miterlimit:10;}
	.st52{display:inline;fill:#C9C9C9;stroke:#2B2B29;stroke-width:2;stroke-miterlimit:10;}
	.st53{fill:#3E3D42;stroke:#3E3D42;stroke-width:0.75;stroke-miterlimit:10;}
	.st54{display:inline;fill:#FA4720;}
</style>
<g id="Layer_1">
	<g>
		<g>
			<g>
				<g>
					<rect x="31" y="14.6" class="st12" width="1.3" height="14.5"/>
				</g>
				<g>
					
						<rect x="29.3" y="16.2" transform="matrix(0.5078 -0.8615 0.8615 0.5078 -0.9252 34.7266)" class="st12" width="1.3" height="4"/>
				</g>
				<g>
					
						<rect x="31.4" y="17.5" transform="matrix(0.8614 -0.5079 0.5079 0.8614 -4.6084 19.4554)" class="st12" width="4" height="1.3"/>
				</g>
				<g>
					
						<rect x="28.2" y="18.8" transform="matrix(0.5078 -0.8615 0.8615 0.5078 -4.7667 35.7001)" class="st12" width="1.3" height="6.5"/>
				</g>
				<g>
					
						<rect x="31.2" y="21.4" transform="matrix(0.8614 -0.5079 0.5079 0.8614 -6.4149 20.5316)" class="st12" width="6.5" height="1.3"/>
				</g>
			</g>
			<g>
				<g>
					<rect x="21.7" y="19.9" transform="matrix(0.5 -0.866 0.866 0.5 -12.3776 32.9892)" class="st12" width="1.3" height="14.5"/>
				</g>
				<g>
					
						<rect x="16.3" y="26.2" transform="matrix(0.8705 -0.4922 0.4922 0.8705 -10.841 12.4969)" class="st12" width="4" height="1.3"/>
				</g>
				<g>
					
						<rect x="19.4" y="21.9" transform="matrix(1 -9.043694e-03 9.043694e-03 1 -0.2152 0.1822)" class="st12" width="1.3" height="4"/>
				</g>
				<g>
					
						<rect x="17.9" y="29.1" transform="matrix(0.8705 -0.4922 0.4922 0.8705 -11.8814 14.2434)" class="st12" width="6.5" height="1.3"/>
				</g>
				<g>
					
						<rect x="23.3" y="21.7" transform="matrix(1 -9.059944e-03 9.059944e-03 1 -0.2245 0.2176)" class="st12" width="1.3" height="6.5"/>
				</g>
			</g>
			<g>
				<g>
					
						<rect x="15.1" y="37.3" transform="matrix(0.866 -0.5001 0.5001 0.866 -15.9553 16.2711)" class="st12" width="14.5" height="1.3"/>
				</g>
				<g>
					
						<rect x="18" y="40.6" transform="matrix(9.114205e-03 -1 1 9.114205e-03 -21.3792 60.8921)" class="st12" width="4" height="1.3"/>
				</g>
				<g>
					
						<rect x="17.7" y="36.3" transform="matrix(0.4921 -0.8705 0.8705 0.4921 -24.009 35.3878)" class="st12" width="1.3" height="4"/>
				</g>
				<g>
					
						<rect x="20.7" y="39.6" transform="matrix(9.114205e-03 -1 1 9.114205e-03 -16.5486 63.7699)" class="st12" width="6.5" height="1.3"/>
				</g>
				<g>
					
						<rect x="20.5" y="32.2" transform="matrix(0.4921 -0.8705 0.8705 0.4921 -20.1067 36.3767)" class="st12" width="1.3" height="6.5"/>
				</g>
			</g>
			<g>
				<g>
					<rect x="31" y="36" class="st12" width="1.3" height="14.5"/>
				</g>
				<g>
					
						<rect x="32.7" y="45" transform="matrix(0.5078 -0.8615 0.8615 0.5078 -24.0278 51.8349)" class="st12" width="1.3" height="4"/>
				</g>
				<g>
					
						<rect x="27.9" y="46.3" transform="matrix(0.8614 -0.5079 0.5079 0.8614 -19.6952 21.7049)" class="st12" width="4" height="1.3"/>
				</g>
				<g>
					
						<rect x="33.8" y="39.9" transform="matrix(0.5078 -0.8615 0.8615 0.5078 -20.1861 50.8621)" class="st12" width="1.3" height="6.5"/>
				</g>
				<g>
					
						<rect x="25.6" y="42.5" transform="matrix(0.8614 -0.5079 0.5079 0.8614 -17.8887 20.6286)" class="st12" width="6.5" height="1.3"/>
				</g>
			</g>
			<g>
				<g>
					<rect x="40.3" y="30.6" transform="matrix(0.5 -0.866 0.866 0.5 -12.3776 54.3703)" class="st12" width="1.3" height="14.5"/>
				</g>
				<g>
					
						<rect x="43" y="37.6" transform="matrix(0.8705 -0.4922 0.4922 0.8705 -13.0148 27.083)" class="st12" width="4" height="1.3"/>
				</g>
				<g>
					
						<rect x="42.6" y="39.2" transform="matrix(1 -9.043694e-03 9.043694e-03 1 -0.3711 0.3928)" class="st12" width="1.3" height="4"/>
				</g>
				<g>
					
						<rect x="38.9" y="34.8" transform="matrix(0.8705 -0.4922 0.4922 0.8705 -11.9744 25.3364)" class="st12" width="6.5" height="1.3"/>
				</g>
				<g>
					
						<rect x="38.7" y="37" transform="matrix(1 -9.059944e-03 9.059944e-03 1 -0.3629 0.3584)" class="st12" width="1.3" height="6.5"/>
				</g>
			</g>
			<g>
				<g>
					
						<rect x="33.6" y="26.6" transform="matrix(0.866 -0.5001 0.5001 0.866 -8.128 24.0978)" class="st12" width="14.5" height="1.3"/>
				</g>
				<g>
					
						<rect x="41.3" y="23.2" transform="matrix(9.114205e-03 -1 1 9.114205e-03 18.9644 66.9074)" class="st12" width="4" height="1.3"/>
				</g>
				<g>
					
						<rect x="44.3" y="24.9" transform="matrix(0.4921 -0.8705 0.8705 0.4921 -0.5416 52.7663)" class="st12" width="1.3" height="4"/>
				</g>
				<g>
					
						<rect x="36.1" y="24.2" transform="matrix(9.114205e-03 -1 1 9.114205e-03 14.1338 64.0295)" class="st12" width="6.5" height="1.3"/>
				</g>
				<g>
					
						<rect x="41.5" y="26.5" transform="matrix(0.4921 -0.8705 0.8705 0.4921 -4.4437 51.7781)" class="st12" width="1.3" height="6.5"/>
				</g>
			</g>
		</g>
		<line class="st10" x1="15.2" y1="49" x2="48.1" y2="16.1"/>
		<line class="st0" x1="16.4" y1="47.8" x2="46.8" y2="17.4"/>
	</g>
</g>
<g id="old" class="st25">
</g>
</svg>
